PathFileType	4	(X/Y/Z)	C:\Users\Basilio\Documents\Thesis Gigler\squatting_fais\c3dfiles\044\SJ_pre3\markers_experimental.trc
DataRate	CameraRate	NumFrames	NumMarkers	Units	OrigDataRate	OrigDataStartFrame	OrigNumFrames
200.000000	200.000000	4	63	mm	200.000000	356	1427
Frame#	Time	FHD			LBHD			RBHD			C7			T10			CLAV			LSHO			LUUPA			LMUPA			LDUPA			LLEP			LMEP			LRAD			LUL			LRFIN			RSHO			RUPA1			RMUPA			RDUPA			RLEP			RMEP			RRAD			RUL			RUFIN			RASI			USACR			LSACR			RSACR			LTHI1			LTHI2			LTHI3			LTHI4			LLFC			LMFC			LTIB1			LTIB2			LTIB3			LTIB4			LLMAL			LMMAL			LHEE			LMT1			LMT2			LMT5			RTHI			RTHI2			RTHI3			RTHI4			RLFC			RMFC			RTIB1			RTIB2			RTIB3			RTIB4			RLMAL			RMMAL			RHEE			RMT1			RMT2			RMT5			LASI			*61			*62			
		X1	Y1	Z1	X2	Y2	Z2	X3	Y3	Z3	X4	Y4	Z4	X5	Y5	Z5	X6	Y6	Z6	X7	Y7	Z7	X8	Y8	Z8	X9	Y9	Z9	X10	Y10	Z10	X11	Y11	Z11	X12	Y12	Z12	X13	Y13	Z13	X14	Y14	Z14	X15	Y15	Z15	X16	Y16	Z16	X17	Y17	Z17	X18	Y18	Z18	X19	Y19	Z19	X20	Y20	Z20	X21	Y21	Z21	X22	Y22	Z22	X23	Y23	Z23	X24	Y24	Z24	X25	Y25	Z25	X26	Y26	Z26	X27	Y27	Z27	X28	Y28	Z28	X29	Y29	Z29	X30	Y30	Z30	X31	Y31	Z31	X32	Y32	Z32	X33	Y33	Z33	X34	Y34	Z34	X35	Y35	Z35	X36	Y36	Z36	X37	Y37	Z37	X38	Y38	Z38	X39	Y39	Z39	X40	Y40	Z40	X41	Y41	Z41	X42	Y42	Z42	X43	Y43	Z43	X44	Y44	Z44	X45	Y45	Z45	X46	Y46	Z46	X47	Y47	Z47	X48	Y48	Z48	X49	Y49	Z49	X50	Y50	Z50	X51	Y51	Z51	X52	Y52	Z52	X53	Y53	Z53	X54	Y54	Z54	X55	Y55	Z55	X56	Y56	Z56	X57	Y57	Z57	X58	Y58	Z58	X59	Y59	Z59	X60	Y60	Z60	X61	Y61	Z61	X62	Y62	Z62	X63	Y63	Z63	

357	1.78	-145.3384399414063	1760.13427734375	-923.655456542969	-279.9779357910157	1723.579223632813	-995.4089355468752	-317.5644226074219	1707.811767578125	-833.1123657226565	-350.4921569824219	1539.195434570313	-927.525085449219	-385.4925231933595	1236.093627929688	-931.7607421875002	-215.5167083740235	1487.47509765625	-922.406677246094	-251.5256347656251	1534.1328125	-1104.846069335938	-333.4464416503907	1372.013427734375	-1255.355224609375	-301.3274536132813	1332.890869140625	-1252.529052734375	-346.4773864746094	1312.787231445313	-1289.487426757813	-345.5333862304688	1254.239624023438	-1306.742553710938	-412.7694702148439	1244.452026367188	-1253.968383789063	-282.0165100097657	1032.031982421875	-1142.95703125	-248.7686462402344	1013.426025390625	-1200.657348632813	-230.1394805908204	1010.063354492188	-1099.902709960938	-275.9645690917969	1509.024047851563	-728.7144165039064	-360.3622131347657	1346.406005859375	-595.4057617187501	-328.2111511230469	1306.9521484375	-595.0172729492189	-371.2548217773438	1286.599487304688	-559.4356079101564	-366.5171508789063	1225.050170898438	-542.0512695312501	-435.5979003906251	1212.028686523438	-594.8107910156251	-295.9745178222657	1014.722106933594	-711.0719604492189	-275.9976501464844	983.9298095703127	-647.5556640625001	-233.7257537841797	998.040710449219	-748.3311767578126	-201.9845581054688	1005.169494628906	-819.5364990234377	-369.5746765136719	1081.963500976563	-923.1211547851565	-377.1976623535157	1050.62255859375	-950.5013427734377	-374.1183471679688	1052.114501953125	-893.9883422851565	-320.9845886230469	806.7437133789065	-1121.696411132813	-294.5812683105469	726.4696655273439	-1123.662963867188	-246.984603881836	723.9450683593751	-1115.777099609375	-327.3877563476563	676.2435913085939	-1113.055297851563	-327.9768066406251	515.4616699218751	-1105.705444335938	-317.1641540527344	501.647186279297	-985.405944824219	-307.8303222656251	335.6768798828126	-1048.10205078125	-336.4591369628907	294.4044799804688	-1121.998291015625	-305.4602355957032	290.8530578613282	-1086.692016601563	-319.0962829589844	211.1022491455079	-1062.49072265625	-371.6025085449219	94.19554901123048	-1115.957153320313	-349.9976196289063	98.910758972168	-1031.817016601563	-428.0193786621095	47.31484603881837	-1069.08740234375	-211.4308013916016	61.1623878479004	-1055.548217773438	-214.0695953369141	60.84706115722658	-1101.8037109375	-249.8308258056641	38.59992599487305	-1148.340209960938	-316.4075927734376	753.5609741210939	-742.2034301757814	-279.0076293945313	698.1684570312501	-734.1047973632814	-246.1262512207032	698.1764526367189	-740.3729858398439	-306.7551269531251	618.8801269531251	-748.4338378906251	-314.8505859375001	504.6743469238282	-752.6036376953126	-316.2283020019532	491.7554016113282	-875.6512451171877	-280.0952148437501	372.9929809570313	-769.068786621094	-356.1910705566407	309.8643188476563	-720.6511840820314	-314.3970947265626	298.8458251953126	-736.2735595703126	-307.4743652343751	246.4874572753907	-758.8406372070314	-382.7138061523438	95.88423156738283	-737.2418823242189	-358.7033691406251	99.67232513427737	-818.8361816406252	-434.4379272460939	48.9151954650879	-782.009704589844	-223.6261749267579	62.85681533813478	-788.0375976562502	-218.0993194580079	61.51422500610353	-750.2081909179689	-256.6887512207032	39.93762969970704	-698.9534912109376	-203.2416076660157	1028.8935546875	-1039.535522460938	nan	nan	nan	nan	nan	nan	
358	1.785	-145.3375701904297	1760.11376953125	-923.636657714844	-279.8600158691407	1723.557739257813	-995.4121704101565	-317.5157775878907	1707.848266601563	-833.1654052734377	-350.4196472167969	1539.160400390625	-927.5208129882815	-385.4522399902345	1236.058837890625	-931.7421875000002	-215.5067749023438	1487.500854492188	-922.3953247070315	-251.3917999267579	1534.34716796875	-1104.856323242188	-333.4698486328126	1371.978881835938	-1255.328979492188	-301.3286132812501	1332.824584960938	-1252.52734375	-346.3378601074219	1312.771240234375	-1289.524536132813	-345.4319458007813	1254.217651367188	-1306.75	-412.6654663085939	1244.51611328125	-1254.025024414063	-281.9309082031251	1032.115478515625	-1142.928466796875	-248.6786804199219	1013.402770996094	-1200.682983398438	-230.1239013671876	1010.014953613281	-1099.869262695313	-275.9219970703126	1509.046875	-728.7050170898439	-360.3764038085938	1346.4638671875	-595.4193725585939	-328.1926269531251	1307.029174804688	-595.0057373046876	-371.2276306152344	1286.622680664063	-559.3934936523439	-366.4757995605469	1225.0400390625	-542.0381469726564	-435.5904541015626	1212.046142578125	-594.8223876953126	-295.8942260742188	1014.825012207031	-711.1050415039064	-276.0040588378907	983.8836669921877	-647.5576171875001	-233.6878967285157	998.0054931640627	-748.3186645507814	-201.9857940673829	1005.16845703125	-819.5177001953127	-369.5125122070313	1081.997802734375	-923.1363525390627	-377.1110534667969	1050.697509765625	-950.520202636719	-374.0921020507813	1052.127197265625	-893.9937133789065	-320.9631958007813	806.7485961914065	-1121.653930664063	-294.6036071777344	726.4875488281251	-1123.635009765625	-247.0263366699219	723.9406738281251	-1115.772827148438	-327.3929443359376	676.2579956054689	-1113.053100585938	-327.9575500488282	515.4569702148439	-1105.695922851563	-317.0167236328126	501.5550231933595	-985.3770141601565	-307.8248901367188	335.6553344726563	-1048.107421875	-336.4762268066407	294.4422302246094	-1122.05810546875	-305.4866943359376	290.8454895019532	-1086.656005859375	-319.0596923828126	211.0931549072266	-1062.46337890625	-371.5779724121094	94.17488098144533	-1115.9326171875	-349.9220581054688	98.9179382324219	-1031.76025390625	-428.0205078125001	47.31389999389649	-1069.08642578125	-211.693832397461	60.73729324340822	-1055.306396484375	-214.0118103027344	60.78392410278322	-1101.907470703125	-249.8309020996094	38.61187744140626	-1148.346801757813	-316.4623107910157	753.6481323242189	-742.2005615234376	-278.9800720214844	698.2566528320314	-734.1567993164064	-246.0185852050782	698.2901611328126	-739.8229370117189	-306.7831115722657	618.9058837890626	-748.4472656250001	-314.8569030761719	504.6011047363282	-752.5964355468751	-316.2331237792969	491.7561340332032	-875.6080322265627	-280.0888671875001	372.9875183105469	-768.9428710937502	-356.1914672851563	309.8908691406251	-720.6624755859376	-314.4072875976563	298.8692016601563	-736.2713012695314	-307.4750061035157	246.4979095458985	-758.8474121093751	-382.7042541503907	95.86273193359376	-737.2430419921876	-358.7519226074219	99.7028503417969	-818.7982177734377	-434.4610595703126	48.9420852661133	-782.050720214844	-223.6062011718751	62.88445281982423	-788.0668945312502	-218.1051330566407	61.47970581054689	-750.2621459960939	-256.7138061523438	39.91318893432618	-699.0113525390626	-203.0514221191407	1028.906494140625	-1039.532104492188	nan	nan	nan	nan	nan	nan	
359	1.79	-145.3552856445313	1760.0634765625	-923.6492919921877	-279.8093566894532	1723.581298828125	-995.4372558593752	-317.5093383789063	1707.865356445313	-833.1414794921877	-350.3769226074219	1539.126586914063	-927.5269165039065	-385.4550170898439	1236.025512695313	-931.7470703125002	-215.4364166259766	1487.568359375	-922.3743896484377	-251.2718505859376	1534.362670898438	-1104.80126953125	-333.2505493164063	1372.046264648438	-1255.338012695313	-301.0811462402344	1332.863525390625	-1252.555541992188	-346.2625732421876	1312.823608398438	-1289.497680664063	-345.2516174316407	1254.22265625	-1306.7392578125	-412.5796508789064	1244.4765625	-1254.007934570313	-281.9064331054688	1032.088134765625	-1142.919067382813	-248.6011199951172	1013.373596191406	-1200.632080078125	-230.0993347167969	1009.978942871094	-1099.81640625	-275.9038391113282	1508.988525390625	-728.6861572265626	-360.3025817871094	1346.455444335938	-595.3780517578126	-328.0257263183594	1306.883056640625	-594.7739257812501	-371.2251586914063	1286.6005859375	-559.3847656250001	-366.4165344238282	1225.083740234375	-542.0313110351564	-435.541961669922	1212.029052734375	-594.7245483398439	-295.9449462890626	1014.711547851563	-711.0061035156251	-275.9855957031251	983.867614746094	-647.5529174804689	-233.6937255859376	998.0111083984377	-748.2871093750001	-201.9595794677735	1005.150390625	-819.4841308593752	-369.5069274902344	1081.99658203125	-923.1326293945315	-377.0880737304688	1050.698608398438	-950.5157470703127	-374.0949096679688	1052.134033203125	-893.9854736328127	-320.8712463378907	806.7662353515627	-1121.694091796875	-294.6039428710938	726.4922485351564	-1123.610961914063	-246.8865814208985	723.9389038085939	-1115.77880859375	-327.3650817871094	676.2738037109376	-1113.000732421875	-327.9438476562501	515.4625854492189	-1105.660278320313	-317.1213378906251	501.6274719238282	-985.379821777344	-307.8258361816407	335.6468200683594	-1048.10986328125	-336.4442749023438	294.4126281738282	-1121.990112304688	-305.4465942382813	290.8296813964844	-1086.62548828125	-319.0965270996094	211.0869140625001	-1062.495727539063	-371.5482482910157	94.15901947021486	-1115.928466796875	-349.9891967773438	98.8808517456055	-1031.790771484375	-428.0543823242189	47.30639266967774	-1069.037109375	-211.7237854003907	60.77201080322267	-1055.318481445313	-213.9884948730469	60.57088851928712	-1101.76953125	-249.5285797119141	38.91831588745118	-1148.484741210938	-316.5469055175782	753.7592163085939	-742.1184692382814	-278.9415588378907	698.2693481445314	-734.1467895507814	-246.0028076171876	698.3239135742189	-739.7908325195314	-306.7630615234376	618.8764648437501	-748.4583740234376	-314.8250427246094	504.5783691406251	-752.5502929687501	-316.2553100585938	491.7403869628907	-875.5994873046877	-280.1120300292969	372.9992370605469	-769.0076293945315	-356.1851501464844	309.8926086425782	-720.6284790039064	-314.4114990234376	298.8800964355469	-736.2683105468751	-307.3982543945313	246.5181579589844	-758.8299560546876	-382.7079162597657	95.88270568847658	-737.2398071289064	-358.7300720214844	99.69011688232425	-818.797302246094	-434.3880615234376	48.89135742187501	-781.9943847656252	-223.6415252685547	62.870662689209	-788.0350341796877	-218.1278076171876	61.43756103515626	-750.2275390625001	-256.7140502929688	39.93230056762696	-698.9812011718751	-203.1308135986329	1028.842041015625	-1039.466674804688	nan	nan	nan	nan	nan	nan	
360	1.795	-145.2316131591797	1760.173583984375	-923.5930786132815	-279.7601318359376	1723.5791015625	-995.4177246093752	-317.4853820800782	1707.828247070313	-833.141540527344	-350.3096008300782	1539.106689453125	-927.5256347656252	-385.3938903808595	1236.028930664063	-931.7391357421877	-215.4426422119141	1487.55224609375	-922.3807373046877	-251.2403869628907	1534.437622070313	-1104.770141601563	-333.2087097167969	1372.00390625	-1255.317626953125	-301.1259765625001	1332.8740234375	-1252.471801757813	-346.1731567382813	1312.776245117188	-1289.463256835938	-345.1170043945313	1254.26416015625	-1306.814819335938	-412.5161132812501	1244.504150390625	-1254.025024414063	-281.9123840332032	1032.132690429688	-1142.942138671875	-248.5484008789063	1013.400390625	-1200.630004882813	-230.0060424804688	1009.987426757813	-1099.802368164063	-275.8288574218751	1508.979125976563	-728.6627197265626	-360.2819519042969	1346.47900390625	-595.3907470703126	-328.1552429199219	1307.065795898438	-595.0493774414064	-371.1592407226563	1286.633056640625	-559.3267211914064	-366.3889465332032	1225.068359375	-542.0199584960939	-435.4986267089845	1212.114135742188	-594.7043457031251	-295.8845520019532	1014.782592773438	-711.0668334960939	-275.9562377929688	983.8076782226565	-647.4509887695314	-233.6812744140626	998.0090942382815	-748.3096923828126	-201.9216461181641	1005.175598144531	-819.4843750000002	-369.4459533691407	1082.033203125	-923.1398925781252	-377.0822753906251	1050.704467773438	-950.5174560546877	-374.0674743652344	1052.107299804688	-893.980407714844	-320.8819580078126	806.7639160156252	-1121.6572265625	-294.5834655761719	726.5348510742189	-1123.74462890625	-246.8777160644532	723.9334716796876	-1115.76708984375	-327.3451232910157	676.3073120117189	-1112.99560546875	-327.9249267578126	515.4606323242189	-1105.657348632813	-317.1690368652344	501.6026000976564	-985.4114990234377	-307.7538452148438	335.6808471679688	-1048.146728515625	-336.4185791015626	294.4202575683594	-1121.9833984375	-305.4190063476563	290.8479919433594	-1086.641723632813	-319.0844726562501	211.0871887207032	-1062.441528320313	-371.5582275390626	94.09471130371095	-1115.902099609375	-349.9931030273438	98.84040832519534	-1031.7783203125	-427.9418945312501	47.31145095825196	-1069.08740234375	-211.7342834472657	60.77795410156251	-1055.308715820313	-213.9818420410157	60.53973388671876	-1101.748901367188	-249.5036315917969	38.88722229003907	-1148.477416992188	-316.5718994140626	753.6906738281251	-742.1173706054689	-278.9692993164063	698.2526245117189	-734.1635131835939	-246.0007476806641	698.3022460937501	-739.8340454101564	-306.7460937500001	618.8502197265626	-748.4445190429689	-314.8456726074219	504.6366577148439	-752.5920410156251	-316.2272338867188	491.7565002441407	-875.6069946289065	-280.1176147460938	372.9908447265626	-769.0035400390627	-356.1995239257813	309.8725280761719	-720.6591186523439	-314.4067382812501	298.8668212890626	-736.2798461914064	-307.2772216796876	246.2997741699219	-758.8594970703126	-382.7087097167969	95.88250732421876	-737.2330932617189	-358.6816101074219	99.63906097412112	-818.819519042969	-434.4573364257814	48.97459793090822	-782.0223388671877	-223.6112365722657	63.0883255004883	-787.6434326171877	-217.9883422851563	61.12825393676759	-749.9088745117189	-256.6810913085938	39.9027328491211	-698.9570312500001	-203.1345520019532	1028.75927734375	-1039.464721679688	nan	nan	nan	nan	nan	nan	
